<?xml version="1.0" encoding="utf-8"?>
<!-- Generator: Adobe Illustrator 27.7.0, SVG Export Plug-In . SVG Version: 6.00 Build 0)  -->
<svg version="1.1" id="Layer_1" xmlns:svg="http://www.w3.org/2000/svg"
	 xmlns="http://www.w3.org/2000/svg" xmlns:xlink="http://www.w3.org/1999/xlink" x="0px" y="0px" viewBox="0 0 16 16"
	 style="enable-background:new 0 0 16 16;" xml:space="preserve">
<style type="text/css">
	.st0{display:none;}
	.st1{display:inline;fill:#A7AAAD;}
	.st2{fill:#A7AAAD;}
</style>
<g class="st0">
	<path id="path5822" class="st1" d="M8,0.1c-4.4,0-8,3.6-8,8s3.6,8,8,8s8-3.6,8-8S12.4,0.1,8,0.1z M9.3,4.2c0.1,0,0.7,0.9,1.4,1.9
		s1.7,2.5,2.2,3.2l1,1.3L13.3,11c-0.3,0.3-0.6,0.5-0.7,0.5c-0.3,0-1.3-1.1-2.2-2.5c-0.5-0.7-0.9-1.4-1-1.4c-0.1,0-0.1,0.6-0.1,1.4
		v1.4L8.6,11c-0.4,0.2-0.7,0.4-0.8,0.4c-0.1,0-0.3-0.4-0.6-0.9C7,10,6.7,9.4,6.5,9.2L6.2,8.9L6.1,9.3c-0.3,1.6-0.4,1.7-1,2.2
		c-0.5,0.4-0.9,0.5-0.9,0.4c0,0,0-0.3-0.1-0.6C4,10,3.5,8.8,2.8,7.5C2.6,7.1,2.6,7.1,3,6.8c0.2-0.1,0.6-0.3,0.8-0.5
		c0.3-0.2,0.4-0.2,0.8,0.3C4.8,7.1,4.9,7.2,5,7c0.1-0.3,1.2-1.1,1.5-1.1c0.1,0,0.4,0.3,0.6,0.8C7.3,7,7.6,7.4,7.6,7.4
		c0.1,0,0.3-1.5,0.2-1.9C7.8,5.3,7.9,5.1,8.4,4.7C8.8,4.4,9.2,4.2,9.3,4.2z"/>
</g>
<path class="st2" d="M12.8,0H3.2C1.4,0,0,1.4,0,3.2v9.6C0,14.6,1.4,16,3.2,16h9.6c1.8,0,3.2-1.4,3.2-3.2V3.2C16,1.4,14.6,0,12.8,0z
	 M10.6,12.2H9.2l-1-3.5L7.9,8h0L7.7,8.7l-1.3,3.5H5.2L1.9,3.8h2.5l1.1,3.3l0.2,0.5l0.2-0.5l1.2-3.3h1.6l1,3.3l0.2,0.5l0.2-0.5
	l1.1-3.3h2.7L10.6,12.2L10.6,12.2z"/>
</svg>
